# Exported from Wings 3D 1.2
mtllib wortel.mtl
o cone1
#98 vertices, 112 faces
v 0.10041458 -0.19840090 -3.3509780e-18
v 9.2802532e-2 -0.19840090 3.8268343e-2
v 7.1125257e-2 -0.19840090 7.0710678e-2
v 3.8682922e-2 -0.19840090 9.2387953e-2
v 4.1457907e-4 -0.19840090 1.0000000e-1
v -3.7853764e-2 -0.19840090 9.2387953e-2
v -7.0296099e-2 -0.19840090 7.0710678e-2
v -9.1973374e-2 -0.19840090 3.8268343e-2
v -9.9585421e-2 -0.19840090 8.8954900e-18
v -9.1973374e-2 -0.19840090 -3.8268343e-2
v -7.0296099e-2 -0.19840090 -7.0710678e-2
v -3.7853764e-2 -0.19840090 -9.2387953e-2
v 4.1457907e-4 -0.19840090 -1.0000000e-1
v 3.8682922e-2 -0.19840090 -9.2387953e-2
v 7.1125257e-2 -0.19840090 -7.0710678e-2
v 9.2802532e-2 -0.19840090 -3.8268343e-2
v 0.0000000e+0 0.31962555 0.0000000e+0
v 0.10047269 -0.23164189 -3.3509780e-18
v 9.2860644e-2 -0.23164189 3.8268343e-2
v 7.1183369e-2 -0.23164189 7.0710678e-2
v 3.8741034e-2 -0.23164189 9.2387953e-2
v 4.7269101e-4 -0.23164189 1.0000000e-1
v -3.7795652e-2 -0.23164189 9.2387953e-2
v -7.0237987e-2 -0.23164189 7.0710678e-2
v -9.1915262e-2 -0.23164189 3.8268343e-2
v -9.9527309e-2 -0.23164189 8.8954900e-18
v -9.1915262e-2 -0.23164189 -3.8268343e-2
v -7.0237987e-2 -0.23164189 -7.0710678e-2
v -3.7795652e-2 -0.23164189 -9.2387953e-2
v 4.7269101e-4 -0.23164189 -1.0000000e-1
v 3.8741034e-2 -0.23164189 -9.2387953e-2
v 7.1183369e-2 -0.23164189 -7.0710678e-2
v 9.2860644e-2 -0.23164189 -3.8268343e-2
v 9.2860644e-2 -0.26991023 -3.3509780e-18
v 8.5828030e-2 -0.26991023 3.5355339e-2
v 6.5800839e-2 -0.26991023 6.5328148e-2
v 3.5828030e-2 -0.26991023 8.5355339e-2
v 4.7269101e-4 -0.26991023 9.2387953e-2
v -3.4882648e-2 -0.26991023 8.5355339e-2
v -6.4855457e-2 -0.26991023 6.5328148e-2
v -8.4882648e-2 -0.26991023 3.5355339e-2
v -9.1915262e-2 -0.26991023 7.9632831e-18
v -8.4882648e-2 -0.26991023 -3.5355339e-2
v -6.4855457e-2 -0.26991023 -6.5328148e-2
v -3.4882648e-2 -0.26991023 -8.5355339e-2
v 4.7269101e-4 -0.26991023 -9.2387953e-2
v 3.5828030e-2 -0.26991023 -8.5355339e-2
v 6.5800839e-2 -0.26991023 -6.5328148e-2
v 8.5828030e-2 -0.26991023 -3.5355339e-2
v 7.1183369e-2 -0.30235257 -3.3509780e-18
v 6.5800839e-2 -0.30235257 2.7059805e-2
v 5.0472691e-2 -0.30235257 5.0000000e-2
v 2.7532496e-2 -0.30235257 6.5328148e-2
v 4.7269101e-4 -0.30235257 7.0710678e-2
v -2.6587114e-2 -0.30235257 6.5328148e-2
v -4.9527309e-2 -0.30235257 5.0000000e-2
v -6.4855457e-2 -0.30235257 2.7059805e-2
v -7.0237987e-2 -0.30235257 5.3085825e-18
v -6.4855457e-2 -0.30235257 -2.7059805e-2
v -4.9527309e-2 -0.30235257 -5.0000000e-2
v -2.6587114e-2 -0.30235257 -6.5328148e-2
v 4.7269101e-4 -0.30235257 -7.0710678e-2
v 2.7532496e-2 -0.30235257 -6.5328148e-2
v 5.0472691e-2 -0.30235257 -5.0000000e-2
v 6.5800839e-2 -0.30235257 -2.7059805e-2
v 3.8741034e-2 -0.32402984 -3.3509780e-18
v 3.5828030e-2 -0.32402984 1.4644661e-2
v 2.7532496e-2 -0.32402984 2.7059805e-2
v 1.5117352e-2 -0.32402984 3.5355339e-2
v 4.7269101e-4 -0.32402984 3.8268343e-2
v -1.4171970e-2 -0.32402984 3.5355339e-2
v -2.6587114e-2 -0.32402984 2.7059805e-2
v -3.4882648e-2 -0.32402984 1.4644661e-2
v -3.7795652e-2 -0.32402984 1.3355424e-18
v -3.4882648e-2 -0.32402984 -1.4644661e-2
v -2.6587114e-2 -0.32402984 -2.7059805e-2
v -1.4171970e-2 -0.32402984 -3.5355339e-2
v 4.7269101e-4 -0.32402984 -3.8268343e-2
v 1.5117352e-2 -0.32402984 -3.5355339e-2
v 2.7532496e-2 -0.32402984 -2.7059805e-2
v 3.5828030e-2 -0.32402984 -1.4644661e-2
v 4.7269101e-4 -0.33164189 -3.3509780e-18
v 2.5414579e-2 0.28629395 -3.3509780e-18
v 2.3511567e-2 0.28629395 -9.5670858e-3
v 1.8092249e-2 0.28629395 -1.7677670e-2
v 9.9816649e-3 0.28629395 -2.3096988e-2
v 4.1457907e-4 0.28629395 -2.5000000e-2
v -9.1525067e-3 0.28629395 -2.3096988e-2
v -1.7263090e-2 0.28629395 -1.7677670e-2
v -2.2682409e-2 0.28629395 -9.5670858e-3
v -2.4585421e-2 0.28629395 -2.8936103e-19
v -2.2682409e-2 0.28629395 9.5670858e-3
v -1.7263090e-2 0.28629395 1.7677670e-2
v -9.1525067e-3 0.28629395 2.3096988e-2
v 4.1457907e-4 0.28629395 2.5000000e-2
v 9.9816649e-3 0.28629395 2.3096988e-2
v 1.8092249e-2 0.28629395 1.7677670e-2
v 2.3511567e-2 0.28629395 9.5670858e-3
vn 0.99698671 7.7572513e-2 -1.9152922e-16
vn 0.92110038 7.7506192e-2 0.38153229
vn 0.70499006 7.7317324e-2 0.70499010
vn 0.38154624 7.7034656e-2 0.92113415
vn -2.1282448e-17 7.6701217e-2 0.99705412
vn -0.38156587 7.6367768e-2 0.92118155
vn -0.70505709 7.6085077e-2 0.70505713
vn -0.92121480 7.5896185e-2 0.38157969
vn -0.99712077 7.5829854e-2 2.3412275e-16
vn -0.92121480 7.5896185e-2 -0.38157969
vn -0.70505709 7.6085077e-2 -0.70505713
vn -0.38156587 7.6367768e-2 -0.92118155
vn -1.4897714e-16 7.6701217e-2 -0.99705412
vn 0.38154624 7.7034656e-2 -0.92113415
vn 0.70499006 7.7317324e-2 -0.70499010
vn 0.92110038 7.7506192e-2 -0.38153229
vn -4.0352863e-3 0.99999186 5.4746188e-16
vn 0.99526652 -9.7183053e-2 -7.8178155e-17
vn 0.91950039 -9.7249251e-2 0.38086955
vn 0.70374208 -9.7437765e-2 0.70374212
vn 0.38085187 -9.7719889e-2 0.91945781
vn -7.1064908e-17 -9.8052665e-2 0.99518123
vn -0.38082678 -9.8385429e-2 0.91939723
vn -0.70365640 -9.8667522e-2 0.70365644
vn -0.91935413 -9.8856006e-2 0.38080897
vn -0.99509517 -9.8922191e-2 4.8319993e-16
vn -0.91935413 -9.8856006e-2 -0.38080897
vn -0.70365640 -9.8667522e-2 -0.70365644
vn -0.38082678 -9.8385429e-2 -0.91939723
vn -7.1064908e-17 -9.8052665e-2 -0.99518123
vn 0.38085187 -9.7719889e-2 -0.91945781
vn 0.70374208 -9.7437765e-2 -0.70374212
vn 0.91950039 -9.7249251e-2 -0.38086955
vn 0.92368212 -0.38315969 0.0000000e+0
vn 0.85337100 -0.38315969 0.35347784
vn 0.65314189 -0.38315969 0.65314189
vn 0.35347784 -0.38315969 0.85337100
vn -7.9084817e-17 -0.38315969 0.92368212
vn -0.35347784 -0.38315969 0.85337100
vn -0.65314189 -0.38315969 0.65314189
vn -0.85337100 -0.38315969 0.35347784
vn -0.92368212 -0.38315969 5.2483560e-16
vn -0.85337100 -0.38315969 -0.35347784
vn -0.65314189 -0.38315969 -0.65314189
vn -0.35347784 -0.38315969 -0.85337100
vn 2.1568586e-17 -0.38315969 -0.92368212
vn 0.35347784 -0.38315969 -0.85337100
vn 0.65314189 -0.38315969 -0.65314189
vn 0.85337100 -0.38315969 -0.35347784
vn 0.70658450 -0.70762868 -2.1432970e-17
vn 0.65279895 -0.70762868 0.27039818
vn 0.49963069 -0.70762868 0.49963069
vn 0.27039818 -0.70762868 0.65279895
vn -1.7860809e-17 -0.70762868 0.70658450
vn -0.27039818 -0.70762868 0.65279895
vn -0.49963069 -0.70762868 0.49963069
vn -0.65279895 -0.70762868 0.27039818
vn -0.70658450 -0.70762868 2.0004106e-16
vn -0.65279895 -0.70762868 -0.27039818
vn -0.49963069 -0.70762868 -0.49963069
vn -0.27039818 -0.70762868 -0.65279895
vn -7.1443235e-18 -0.70762868 -0.70658450
vn 0.27039818 -0.70762868 -0.65279895
vn 0.49963069 -0.70762868 -0.49963069
vn 0.65279895 -0.70762868 -0.27039818
vn 0.38219484 -0.92408176 -2.1296943e-16
vn 0.35310199 -0.92408176 0.14625963
vn 0.27025256 -0.92408176 0.27025256
vn 0.14625963 -0.92408176 0.35310199
vn 2.8395923e-17 -0.92408176 0.38219484
vn -0.14625963 -0.92408176 0.35310199
vn -0.27025256 -0.92408176 0.27025256
vn -0.35310199 -0.92408176 0.14625963
vn -0.38219484 -0.92408176 0.0000000e+0
vn -0.35310199 -0.92408176 -0.14625963
vn -0.27025256 -0.92408176 -0.27025256
vn -0.14625963 -0.92408176 -0.35310199
vn -5.6791847e-17 -0.92408176 -0.38219484
vn 0.14625963 -0.92408176 -0.35310199
vn 0.27025256 -0.92408176 -0.27025256
vn 0.35310199 -0.92408176 -0.14625963
vn 3.5400799e-18 -1.00000000 -7.3899168e-17
vn 0.91976390 0.39247212 -6.5453078e-17
vn 0.84984660 0.39219423 -0.35205746
vn 0.65064621 0.39140134 -0.65074150
vn 0.35226511 0.39021055 -0.85067327
vn -9.5297037e-5 0.38879947 -0.92132240
vn -0.35288467 0.38738141 -0.85170890
vn -0.65230137 0.38617374 -0.65220608
vn -0.85253732 0.38536399 -0.35309306
vn -0.92288357 0.38507911 7.9850978e-17
vn -0.85253732 0.38536399 0.35309306
vn -0.65230137 0.38617374 0.65220608
vn -0.35288467 0.38738141 0.85170890
vn -9.5297037e-5 0.38879947 0.92132240
vn 0.35226511 0.39021055 0.85067327
vn 0.65064621 0.39140134 0.65074150
vn 0.84984660 0.39219423 0.35205746
g cone1_default
usemtl default
s 1
f 1//1 18//18 33//33 16//16
f 1//1 83//83 98//98 2//2
f 2//2 19//19 18//18 1//1
f 2//2 98//98 97//97 3//3
f 3//3 20//20 19//19 2//2
f 3//3 97//97 96//96 4//4
f 4//4 21//21 20//20 3//3
f 4//4 96//96 95//95 5//5
f 5//5 22//22 21//21 4//4
f 5//5 95//95 94//94 6//6
f 6//6 23//23 22//22 5//5
f 6//6 94//94 93//93 7//7
f 7//7 24//24 23//23 6//6
f 7//7 93//93 92//92 8//8
f 8//8 25//25 24//24 7//7
f 8//8 92//92 91//91 9//9
f 9//9 26//26 25//25 8//8
f 9//9 91//91 90//90 10//10
f 10//10 27//27 26//26 9//9
f 10//10 90//90 89//89 11//11
f 11//11 28//28 27//27 10//10
f 11//11 89//89 88//88 12//12
f 12//12 29//29 28//28 11//11
f 12//12 88//88 87//87 13//13
f 13//13 30//30 29//29 12//12
f 13//13 87//87 86//86 14//14
f 14//14 31//31 30//30 13//13
f 14//14 86//86 85//85 15//15
f 15//15 32//32 31//31 14//14
f 15//15 85//85 84//84 16//16
f 16//16 33//33 32//32 15//15
f 16//16 84//84 83//83 1//1
f 17//17 98//98 83//83
f 18//18 34//34 49//49 33//33
f 19//19 35//35 34//34 18//18
f 20//20 36//36 35//35 19//19
f 21//21 37//37 36//36 20//20
f 22//22 38//38 37//37 21//21
f 23//23 39//39 38//38 22//22
f 24//24 40//40 39//39 23//23
f 25//25 41//41 40//40 24//24
f 26//26 42//42 41//41 25//25
f 27//27 43//43 42//42 26//26
f 28//28 44//44 43//43 27//27
f 29//29 45//45 44//44 28//28
f 30//30 46//46 45//45 29//29
f 31//31 47//47 46//46 30//30
f 32//32 48//48 47//47 31//31
f 33//33 49//49 48//48 32//32
f 34//34 50//50 65//65 49//49
f 35//35 51//51 50//50 34//34
f 36//36 52//52 51//51 35//35
f 37//37 53//53 52//52 36//36
f 38//38 54//54 53//53 37//37
f 39//39 55//55 54//54 38//38
f 40//40 56//56 55//55 39//39
f 41//41 57//57 56//56 40//40
f 42//42 58//58 57//57 41//41
f 43//43 59//59 58//58 42//42
f 44//44 60//60 59//59 43//43
f 45//45 61//61 60//60 44//44
f 46//46 62//62 61//61 45//45
f 47//47 63//63 62//62 46//46
f 48//48 64//64 63//63 47//47
f 49//49 65//65 64//64 48//48
f 50//50 66//66 81//81 65//65
f 51//51 67//67 66//66 50//50
f 52//52 68//68 67//67 51//51
f 53//53 69//69 68//68 52//52
f 54//54 70//70 69//69 53//53
f 55//55 71//71 70//70 54//54
f 56//56 72//72 71//71 55//55
f 57//57 73//73 72//72 56//56
f 58//58 74//74 73//73 57//57
f 59//59 75//75 74//74 58//58
f 60//60 76//76 75//75 59//59
f 61//61 77//77 76//76 60//60
f 62//62 78//78 77//77 61//61
f 63//63 79//79 78//78 62//62
f 64//64 80//80 79//79 63//63
f 65//65 81//81 80//80 64//64
f 66//66 82//82 81//81
f 67//67 82//82 66//66
f 68//68 82//82 67//67
f 69//69 82//82 68//68
f 70//70 82//82 69//69
f 71//71 82//82 70//70
f 72//72 82//82 71//71
f 73//73 82//82 72//72
f 74//74 82//82 73//73
f 75//75 82//82 74//74
f 76//76 82//82 75//75
f 77//77 82//82 76//76
f 78//78 82//82 77//77
f 79//79 82//82 78//78
f 80//80 82//82 79//79
f 81//81 82//82 80//80
f 83//83 84//84 17//17
f 84//84 85//85 17//17
f 85//85 86//86 17//17
f 86//86 87//87 17//17
f 87//87 88//88 17//17
f 88//88 89//89 17//17
f 89//89 90//90 17//17
f 90//90 91//91 17//17
f 91//91 92//92 17//17
f 92//92 93//93 17//17
f 93//93 94//94 17//17
f 94//94 95//95 17//17
f 95//95 96//96 17//17
f 96//96 97//97 17//17
f 97//97 98//98 17//17
